<?xml version="1.0" encoding="UTF-8"?>
<svg version="1.1" xmlns="http://www.w3.org/2000/svg" width="512" height="512">
<path d="M0 0 C0.7785861 -0.00579339 1.5571722 -0.01158677 2.35935181 -0.01755571 C4.96467486 -0.03557348 7.5699764 -0.04647446 10.17533875 -0.05725098 C12.04484756 -0.06843023 13.9143544 -0.07994368 15.78385925 -0.09176636 C21.91912565 -0.12826905 28.05441235 -0.15353102 34.18974304 -0.1763916 C35.2341127 -0.18033747 36.27848236 -0.18428333 37.35449958 -0.18834877 C47.20549704 -0.22475497 57.05650175 -0.25619225 66.90754414 -0.27745819 C79.50129802 -0.30504927 92.09448978 -0.35586499 104.68800956 -0.43793249 C113.54760448 -0.49371174 122.40704675 -0.52269209 131.26681107 -0.5319314 C136.55683348 -0.53818885 141.84619592 -0.55631193 147.13602638 -0.60331726 C152.11276862 -0.64699569 157.0884902 -0.65746841 162.06539154 -0.64268875 C163.88910649 -0.64301729 165.71286544 -0.65528472 167.53640556 -0.68053818 C183.02767657 -0.88370529 183.02767657 -0.88370529 188.18551636 3.57202148 C189.2242682 4.74160478 190.23499253 5.93737155 191.20146179 7.1673584 C192.06513367 7.93821777 192.92880554 8.70907715 193.81864929 9.5032959 C194.56372742 10.17618652 195.30880554 10.84907715 196.07646179 11.5423584 C196.92208679 12.3054834 197.76771179 13.0686084 198.63896179 13.8548584 C199.48458679 14.6179834 200.33021179 15.3811084 201.20146179 16.1673584 C202.40802429 17.2501709 202.40802429 17.2501709 203.63896179 18.3548584 C208.22759592 22.47286338 212.78866677 26.61855382 217.32646179 30.7923584 C220.56363396 33.76954121 223.81283908 36.72688696 227.13896179 39.6048584 C231.32256037 43.22947929 235.36580789 47.00120907 239.4238739 50.76477051 C242.31510307 53.44136878 245.22035583 56.09047019 248.20146179 58.6673584 C252.35810208 62.26038644 256.37017064 66.00484092 260.39775085 69.74084473 C264.14725865 73.21238695 267.94289632 76.62057182 271.81083679 79.96032715 C272.62988145 80.67123951 273.43457505 81.40047166 274.20146179 82.1673584 C274.30203522 83.73646289 274.33253312 85.31010028 274.33568287 86.88242149 C274.34014071 87.90871395 274.34459856 88.9350064 274.34919149 89.99239862 C274.34891494 91.70435543 274.34891494 91.70435543 274.34863281 93.45089722 C274.3523095 94.65272192 274.35598619 95.85454662 274.35977429 97.09279025 C274.36892339 100.44417372 274.37351572 103.79550813 274.3761636 107.14689946 C274.38005847 110.75585906 274.38963773 114.36480437 274.39837646 117.97375488 C274.4181699 126.7001996 274.42821328 135.42664554 274.43710425 144.15310711 C274.44148473 148.26200082 274.44685237 152.37089323 274.45209312 156.47978592 C274.46911256 170.13998077 274.48360475 183.80017481 274.49084187 197.46037865 C274.49275181 201.00805029 274.49467212 204.55572193 274.49662781 208.10339355 C274.49711155 208.98516461 274.49759529 209.86693567 274.49809369 210.77542706 C274.50638638 225.04606291 274.53170721 239.31661473 274.56420849 253.58721392 C274.59730316 268.23791116 274.61529303 282.88856575 274.61848611 297.53930056 C274.62064959 305.76521992 274.62937382 313.99101696 274.65494728 322.21689987 C274.67668767 329.22617884 274.68468855 336.23530579 274.6749805 343.24461465 C274.67044464 346.81867347 274.67227956 350.39241891 274.69174194 353.96643448 C274.71270129 357.84907954 274.70235916 361.73129624 274.68920898 365.61398315 C274.70566285 367.29247913 274.70566285 367.29247913 274.72244912 369.00488412 C274.62547337 380.89809538 270.89545997 390.37885672 262.54130554 398.85095215 C253.58635633 407.03075769 243.83049184 408.42300389 232.20146179 410.1673584 C231.99392273 410.85700684 231.78638367 411.54665527 231.57255554 412.25720215 C227.67048699 424.15932757 221.39155049 431.48041316 210.24833679 437.16345215 C203.55776464 440.20329906 197.38702836 440.31436756 190.17651367 440.30780029 C189.15840912 440.31077142 188.14030456 440.31374254 187.09134835 440.31680369 C183.67532643 440.32548441 180.25933958 440.32699842 176.8433075 440.32849121 C174.39577154 440.33311983 171.9482363 440.33814455 169.5007019 440.34353638 C162.84764483 440.3566583 156.19460147 440.36314184 149.54153466 440.36754704 C145.38467484 440.37031247 141.22781734 440.37455039 137.07095909 440.37905121 C125.55433072 440.39124193 114.03770421 440.40154146 102.52106953 440.4049263 C101.41600215 440.40525565 101.41600215 440.40525565 100.28861017 440.40559165 C99.18094732 440.40591907 99.18094732 440.40591907 98.05090743 440.4062531 C96.55462412 440.40669656 95.05834081 440.40714312 93.5620575 440.40759277 C92.44875287 440.40792492 92.44875287 440.40792492 91.31295725 440.40826377 C79.29226353 440.41221003 67.2716305 440.42965965 55.25096021 440.4529523 C42.89971568 440.47669164 30.54850156 440.48912933 18.19723386 440.49029422 C11.26642786 440.49120956 4.33570093 440.49692615 -2.59508324 440.51511383 C-9.11627738 440.53216675 -15.63734823 440.53374814 -22.15856743 440.52497482 C-24.54902295 440.52420464 -26.93948653 440.52854464 -29.32992172 440.53843307 C-32.59968292 440.55116327 -35.86891398 440.54526951 -39.13867188 440.53485107 C-40.54896897 440.54693568 -40.54896897 440.54693568 -41.98775691 440.55926442 C-53.89744346 440.47085042 -63.24549474 436.5313785 -71.98603821 428.5423584 C-78.65372203 421.63841806 -81.9165527 412.77031066 -81.93275928 403.28666592 C-81.93721713 402.07674715 -81.94167497 400.86682837 -81.9462679 399.6202454 C-81.94617861 398.27579652 -81.94598876 396.93134765 -81.94570923 395.5868988 C-81.94900893 394.15997946 -81.95273472 392.73306104 -81.95685071 391.30614382 C-81.96686687 387.38007044 -81.97058689 383.45401234 -81.97324002 379.52792799 C-81.97714424 375.29529459 -81.98672253 371.06267329 -81.99545288 366.83004761 C-82.01521454 356.60539807 -82.02528338 346.38074754 -82.03418067 336.15608367 C-82.03856429 331.34039406 -82.04393093 326.52470554 -82.04916954 321.7090168 C-82.06618194 305.69908724 -82.08067575 289.68915836 -82.08791828 273.67922115 C-82.08982816 269.52463213 -82.09174849 265.37004311 -82.09370422 261.2154541 C-82.09418796 260.1828582 -82.0946717 259.15026229 -82.0951701 258.0863756 C-82.10346903 241.36188965 -82.12880358 224.63747525 -82.1612849 207.91302054 C-82.19436522 190.7400409 -82.21236795 173.56709761 -82.21556252 156.39408594 C-82.21772678 146.7530499 -82.22646301 137.11211818 -82.2520237 127.4711132 C-82.27374401 119.25967514 -82.28177458 111.04836674 -82.27205691 102.83690321 C-82.267516 98.64918524 -82.26938617 94.46173475 -82.28881836 90.27405357 C-82.30647807 86.43509131 -82.30542989 82.5965911 -82.28992107 78.75762374 C-82.28643154 76.72195331 -82.30255032 74.68627788 -82.31952554 72.65067524 C-82.2321032 60.1380187 -78.97715231 50.44731764 -70.13838196 41.48376465 C-61.18343275 33.30395911 -51.42756825 31.91171291 -39.79853821 30.1673584 C-39.59099915 29.47770996 -39.38346008 28.78806152 -39.16963196 28.07751465 C-35.2675634 16.17538923 -28.98862691 8.85430363 -17.84541321 3.17126465 C-11.92058707 0.47933277 -6.42854125 0.01655248 0 0 Z " fill="#F1F1F0" transform="translate(159.7985382080078,35.8326416015625)"/>
<path d="M0 0 C0.7785861 -0.00579339 1.5571722 -0.01158677 2.35935181 -0.01755571 C4.96467486 -0.03557348 7.5699764 -0.04647446 10.17533875 -0.05725098 C12.04484756 -0.06843023 13.9143544 -0.07994368 15.78385925 -0.09176636 C21.91912565 -0.12826905 28.05441235 -0.15353102 34.18974304 -0.1763916 C35.2341127 -0.18033747 36.27848236 -0.18428333 37.35449958 -0.18834877 C47.20549704 -0.22475497 57.05650175 -0.25619225 66.90754414 -0.27745819 C79.50129802 -0.30504927 92.09448978 -0.35586499 104.68800956 -0.43793249 C113.54760448 -0.49371174 122.40704675 -0.52269209 131.26681107 -0.5319314 C136.55683348 -0.53818885 141.84619592 -0.55631193 147.13602638 -0.60331726 C152.11276862 -0.64699569 157.0884902 -0.65746841 162.06539154 -0.64268875 C163.88910649 -0.64301729 165.71286544 -0.65528472 167.53640556 -0.68053818 C183.02767657 -0.88370529 183.02767657 -0.88370529 188.18551636 3.57202148 C189.2242682 4.74160478 190.23499253 5.93737155 191.20146179 7.1673584 C192.06513367 7.93821777 192.92880554 8.70907715 193.81864929 9.5032959 C194.56372742 10.17618652 195.30880554 10.84907715 196.07646179 11.5423584 C196.92208679 12.3054834 197.76771179 13.0686084 198.63896179 13.8548584 C199.48458679 14.6179834 200.33021179 15.3811084 201.20146179 16.1673584 C202.40802429 17.2501709 202.40802429 17.2501709 203.63896179 18.3548584 C208.22759592 22.47286338 212.78866677 26.61855382 217.32646179 30.7923584 C220.56363396 33.76954121 223.81283908 36.72688696 227.13896179 39.6048584 C231.32256037 43.22947929 235.36580789 47.00120907 239.4238739 50.76477051 C242.31510307 53.44136878 245.22035583 56.09047019 248.20146179 58.6673584 C252.35810208 62.26038644 256.37017064 66.00484092 260.39775085 69.74084473 C264.14725865 73.21238695 267.94289632 76.62057182 271.81083679 79.96032715 C272.62988145 80.67123951 273.43457505 81.40047166 274.20146179 82.1673584 C274.30203522 83.73646289 274.33253312 85.31010028 274.33568287 86.88242149 C274.34014071 87.90871395 274.34459856 88.9350064 274.34919149 89.99239862 C274.34891494 91.70435543 274.34891494 91.70435543 274.34863281 93.45089722 C274.3523095 94.65272192 274.35598619 95.85454662 274.35977429 97.09279025 C274.36892339 100.44417372 274.37351572 103.79550813 274.3761636 107.14689946 C274.38005847 110.75585906 274.38963773 114.36480437 274.39837646 117.97375488 C274.4181699 126.7001996 274.42821328 135.42664554 274.43710425 144.15310711 C274.44148473 148.26200082 274.44685237 152.37089323 274.45209312 156.47978592 C274.46911256 170.13998077 274.48360475 183.80017481 274.49084187 197.46037865 C274.49275181 201.00805029 274.49467212 204.55572193 274.49662781 208.10339355 C274.49711155 208.98516461 274.49759529 209.86693567 274.49809369 210.77542706 C274.50638638 225.04606291 274.53170721 239.31661473 274.56420849 253.58721392 C274.59730316 268.23791116 274.61529303 282.88856575 274.61848611 297.53930056 C274.62064959 305.76521992 274.62937382 313.99101696 274.65494728 322.21689987 C274.67668767 329.22617884 274.68468855 336.23530579 274.6749805 343.24461465 C274.67044464 346.81867347 274.67227956 350.39241891 274.69174194 353.96643448 C274.71270129 357.84907954 274.70235916 361.73129624 274.68920898 365.61398315 C274.70566285 367.29247913 274.70566285 367.29247913 274.72244912 369.00488412 C274.62547337 380.89809538 270.89545997 390.37885672 262.54130554 398.85095215 C253.58635633 407.03075769 243.83049184 408.42300389 232.20146179 410.1673584 C231.99392273 410.85700684 231.78638367 411.54665527 231.57255554 412.25720215 C227.67048699 424.15932757 221.39155049 431.48041316 210.24833679 437.16345215 C203.55776464 440.20329906 197.38702836 440.31436756 190.17651367 440.30780029 C189.15840912 440.31077142 188.14030456 440.31374254 187.09134835 440.31680369 C183.67532643 440.32548441 180.25933958 440.32699842 176.8433075 440.32849121 C174.39577154 440.33311983 171.9482363 440.33814455 169.5007019 440.34353638 C162.84764483 440.3566583 156.19460147 440.36314184 149.54153466 440.36754704 C145.38467484 440.37031247 141.22781734 440.37455039 137.07095909 440.37905121 C125.55433072 440.39124193 114.03770421 440.40154146 102.52106953 440.4049263 C101.41600215 440.40525565 101.41600215 440.40525565 100.28861017 440.40559165 C99.18094732 440.40591907 99.18094732 440.40591907 98.05090743 440.4062531 C96.55462412 440.40669656 95.05834081 440.40714312 93.5620575 440.40759277 C92.44875287 440.40792492 92.44875287 440.40792492 91.31295725 440.40826377 C79.29226353 440.41221003 67.2716305 440.42965965 55.25096021 440.4529523 C42.89971568 440.47669164 30.54850156 440.48912933 18.19723386 440.49029422 C11.26642786 440.49120956 4.33570093 440.49692615 -2.59508324 440.51511383 C-9.11627738 440.53216675 -15.63734823 440.53374814 -22.15856743 440.52497482 C-24.54902295 440.52420464 -26.93948653 440.52854464 -29.32992172 440.53843307 C-32.59968292 440.55116327 -35.86891398 440.54526951 -39.13867188 440.53485107 C-40.54896897 440.54693568 -40.54896897 440.54693568 -41.98775691 440.55926442 C-53.89744346 440.47085042 -63.24549474 436.5313785 -71.98603821 428.5423584 C-78.65372203 421.63841806 -81.9165527 412.77031066 -81.93275928 403.28666592 C-81.93721713 402.07674715 -81.94167497 400.86682837 -81.9462679 399.6202454 C-81.94617861 398.27579652 -81.94598876 396.93134765 -81.94570923 395.5868988 C-81.94900893 394.15997946 -81.95273472 392.73306104 -81.95685071 391.30614382 C-81.96686687 387.38007044 -81.97058689 383.45401234 -81.97324002 379.52792799 C-81.97714424 375.29529459 -81.98672253 371.06267329 -81.99545288 366.83004761 C-82.01521454 356.60539807 -82.02528338 346.38074754 -82.03418067 336.15608367 C-82.03856429 331.34039406 -82.04393093 326.52470554 -82.04916954 321.7090168 C-82.06618194 305.69908724 -82.08067575 289.68915836 -82.08791828 273.67922115 C-82.08982816 269.52463213 -82.09174849 265.37004311 -82.09370422 261.2154541 C-82.09418796 260.1828582 -82.0946717 259.15026229 -82.0951701 258.0863756 C-82.10346903 241.36188965 -82.12880358 224.63747525 -82.1612849 207.91302054 C-82.19436522 190.7400409 -82.21236795 173.56709761 -82.21556252 156.39408594 C-82.21772678 146.7530499 -82.22646301 137.11211818 -82.2520237 127.4711132 C-82.27374401 119.25967514 -82.28177458 111.04836674 -82.27205691 102.83690321 C-82.267516 98.64918524 -82.26938617 94.46173475 -82.28881836 90.27405357 C-82.30647807 86.43509131 -82.30542989 82.5965911 -82.28992107 78.75762374 C-82.28643154 76.72195331 -82.30255032 74.68627788 -82.31952554 72.65067524 C-82.2321032 60.1380187 -78.97715231 50.44731764 -70.13838196 41.48376465 C-61.18343275 33.30395911 -51.42756825 31.91171291 -39.79853821 30.1673584 C-39.59099915 29.47770996 -39.38346008 28.78806152 -39.16963196 28.07751465 C-35.2675634 16.17538923 -28.98862691 8.85430363 -17.84541321 3.17126465 C-11.92058707 0.47933277 -6.42854125 0.01655248 0 0 Z M-65.79853821 53.1673584 C-69.74376407 58.61769933 -70.92135048 63.38188062 -70.93275928 70.00678539 C-70.93721713 71.20748738 -70.94167497 72.40818936 -70.9462679 73.64527625 C-70.94617861 74.97931239 -70.94598876 76.31334853 -70.94570923 77.64738464 C-70.94900895 79.06335498 -70.95273475 80.47932438 -70.95685071 81.89529258 C-70.96686641 85.79102248 -70.9705868 89.68673698 -70.97324002 93.58247793 C-70.9771443 97.78235298 -70.98672251 101.98221585 -70.99545288 106.18208313 C-71.015213 116.32663228 -71.02528259 126.47118241 -71.03418067 136.61574599 C-71.03856401 141.39284166 -71.04393067 146.16993623 -71.04916954 150.94703102 C-71.0661808 166.82657357 -71.08067531 182.70611544 -71.08791828 198.5856657 C-71.08982818 202.70623971 -71.09174851 206.82681371 -71.09370422 210.9473877 C-71.09418796 211.97153638 -71.0946717 212.99568506 -71.0951701 214.05086855 C-71.10347173 230.64414208 -71.12881136 247.23734356 -71.1612849 263.83058562 C-71.19435149 280.86569411 -71.21236665 297.90076596 -71.21556252 314.93590671 C-71.21772791 324.50086709 -71.22648083 334.06572236 -71.2520237 343.63065147 C-71.27372515 351.77590498 -71.28178382 359.92102784 -71.27205691 368.06630697 C-71.2675107 372.22137362 -71.26941702 376.37617069 -71.28881836 380.53120041 C-71.30643996 384.33798554 -71.30546077 388.14430423 -71.28992107 391.95109425 C-71.28642051 393.97432504 -71.30257872 395.99756067 -71.31952554 398.02072352 C-71.25588872 407.02195495 -69.61172116 412.9877723 -64.61103821 420.4173584 C-57.64391503 427.22965662 -50.52219624 429.32384905 -40.97431946 429.26501465 C-40.11291855 429.2635997 -39.25151764 429.26218475 -38.36401367 429.26072693 C-35.61298651 429.2551298 -32.86204076 429.24257786 -30.11103821 429.2298584 C-28.24580501 429.22484303 -26.38057053 429.22028018 -24.51533508 429.21618652 C-19.94303809 429.20516131 -15.37080195 429.18789867 -10.79853821 429.1673584 C-11.11576843 428.27222534 -11.11576843 428.27222534 -11.43940735 427.35900879 C-11.85114197 426.16779419 -11.85114197 426.16779419 -12.27119446 424.95251465 C-12.54455627 424.17013428 -12.81791809 423.38775391 -13.0995636 422.58166504 C-14.96540746 416.13691131 -14.17190542 410.90026441 -11.16181946 404.99157715 C-6.32845368 398.52400747 1.73998304 396.01302638 8.89286804 392.8782959 C9.81454773 392.45806152 10.73622742 392.03782715 11.68583679 391.6048584 C12.5285614 391.23231934 13.37128601 390.85978027 14.23954773 390.47595215 C16.3397676 389.33213586 16.3397676 389.33213586 17.04154968 387.22033691 C17.29701836 383.9405871 16.0179101 381.12783372 14.88896179 378.1048584 C9.00759404 361.34083597 8.05059906 345.55551342 15.63896179 329.03845215 C21.43506924 318.35187903 29.8721868 309.83809561 39.20146179 302.1673584 C39.20146179 301.8373584 39.20146179 301.5073584 39.20146179 301.1673584 C38.63991898 301.15705093 38.07837616 301.14674347 37.49981689 301.13612366 C31.67652714 301.02828155 25.85339915 300.91366632 20.03031921 300.79504395 C17.85457226 300.75162333 15.67878965 300.70995369 13.50297546 300.67004395 C10.38283011 300.61251338 7.26286547 300.54877017 4.14286804 300.48376465 C3.16370926 300.46705215 2.18455048 300.45033966 1.17572021 300.43312073 C0.27486191 300.41317551 -0.6259964 300.39323029 -1.55415344 300.37268066 C-2.74995277 300.34936424 -2.74995277 300.34936424 -3.96990967 300.32557678 C-5.79853821 300.1673584 -5.79853821 300.1673584 -6.79853821 299.1673584 C-6.83946758 296.83438407 -6.84095544 294.50030615 -6.79853821 292.1673584 C-4.15569843 290.84593851 -2.26308849 291.09942487 0.69487 291.16833496 C2.42486992 291.20135712 2.42486992 291.20135712 4.18981934 291.23504639 C5.44791916 291.2591156 6.70601898 291.28318481 8.00224304 291.3079834 C11.38081932 291.33407754 14.75926897 291.35338113 18.13790607 291.36763382 C21.64845079 291.38607283 25.15568115 291.42677815 28.66508484 291.52038574 C46.81881541 291.98255693 60.32182514 290.35451432 75.10220337 278.7795105 C77.75978385 276.7385879 80.53906664 274.94609033 83.37207031 273.16064453 C93.93533076 266.47503435 103.94066084 258.54617831 113.20146179 250.1673584 C113.20146179 249.8373584 113.20146179 249.5073584 113.20146179 249.1673584 C112.50433075 249.15927155 111.80719971 249.15118469 111.08894348 249.14285278 C104.52600877 249.06498123 97.96327461 248.97771351 91.40060616 248.87983131 C88.02648675 248.82983942 84.6523991 248.78351003 81.27812195 248.7454834 C77.4008155 248.69998512 73.52387127 248.64196561 69.64677429 248.5814209 C68.43216522 248.56986969 67.21755615 248.55831848 65.96614075 248.54641724 C64.8451297 248.52654755 63.72411865 248.50667786 62.56913757 248.48620605 C61.57874481 248.47288239 60.58835205 248.45955872 59.56794739 248.4458313 C57.20146179 248.1673584 57.20146179 248.1673584 55.20146179 246.1673584 C54.95146179 243.6673584 54.95146179 243.6673584 55.20146179 241.1673584 C57.20146179 239.1673584 57.20146179 239.1673584 59.94517517 238.94271851 C61.11288452 238.95352448 62.28059387 238.96433044 63.48368835 238.97546387 C64.12783188 238.97826859 64.7719754 238.9810733 65.43563843 238.98396301 C66.836335 238.99046733 68.23701711 239.00106042 69.63765717 239.01522446 C71.85758083 239.0346817 74.07686017 239.03689331 76.29685974 239.03335571 C82.60927188 239.02365988 88.92105801 239.02317988 95.23320007 239.08825684 C99.09395434 239.12679962 102.95304185 239.12632652 106.81388092 239.1006813 C108.28266431 239.09827141 109.75154728 239.11030136 111.22008514 239.13726425 C119.28127588 239.534918 119.28127588 239.534918 126.40284729 236.44692993 C127.96364963 234.40913997 129.10751285 232.48362487 130.20146179 230.1673584 C130.538461 229.57511475 130.87546021 228.98287109 131.22267151 228.37268066 C132.15596532 226.71436619 132.99288422 225.00297018 133.82646179 223.2923584 C134.12149597 222.69592529 134.41653015 222.09949219 134.72050476 221.48498535 C136.8627095 217.0868044 138.60905015 212.62173127 140.08427429 207.96032715 C141.20146179 206.1673584 141.20146179 206.1673584 143.63114929 205.21813965 C146.20146179 205.1673584 146.20146179 205.1673584 147.74320984 206.35510254 C149.49274198 208.5293495 150.22101626 210.46551269 151.10380554 213.1126709 C151.60037659 214.59114502 151.60037659 214.59114502 152.10697937 216.0994873 C152.44753357 217.15313477 152.78808777 218.20678223 153.13896179 219.2923584 C153.67009583 220.92116943 153.67009583 220.92116943 154.21195984 222.58288574 C157.02981198 231.3655486 159.52542686 240.09539076 161.20146179 249.1673584 C161.34954285 249.95658691 161.4976239 250.74581543 161.65019226 251.55895996 C169.72076774 296.43796204 162.17687544 344.85486282 136.49052429 382.9798584 C133.07470966 387.73635113 129.2778902 391.9738333 125.20146179 396.1673584 C124.23273132 397.22890137 124.23273132 397.22890137 123.24443054 398.31188965 C110.84064731 411.52406609 91.94087972 419.90463863 73.84989929 420.64123535 C64.75934477 420.75176823 56.83865559 418.91282371 48.20146179 416.1673584 C45.87178092 415.48715123 43.5370762 414.82703575 41.20146179 414.1673584 C40.62138367 414.75903809 40.04130554 415.35071777 39.44364929 415.96032715 C32.27671285 423.21004998 32.27671285 423.21004998 28.63896179 426.1673584 C27.83458679 426.8273584 27.03021179 427.4873584 26.20146179 428.1673584 C26.20146179 428.4973584 26.20146179 428.8273584 26.20146179 429.1673584 C48.68090352 429.3077333 71.16027261 429.4134297 93.64006424 429.47823143 C104.0786482 429.50912439 114.51695927 429.55121753 124.95536804 429.61999512 C134.05713584 429.67993695 143.15870594 429.71854067 152.26066566 429.73188937 C157.07689636 429.73968816 161.89256166 429.75792126 166.70861053 429.80173874 C171.24938869 429.84271382 175.78937297 429.85497762 180.33031845 429.84600449 C181.98948112 429.84764407 183.6486726 429.85943041 185.30767441 429.88259125 C196.19968119 430.02708724 205.72987986 428.98516665 214.22554398 421.34775352 C221.60434045 413.58775573 221.63760652 405.41230516 221.60209656 395.18566895 C221.60784489 393.76917442 221.61493004 392.35268479 221.62324524 390.936203 C221.6383098 387.8974777 221.64413687 384.85892753 221.64271736 381.82016563 C221.64067905 377.01765089 221.66027867 372.21537111 221.68289185 367.41291809 C221.72379713 358.09345409 221.74246508 348.77400893 221.75906372 339.4544754 C221.78144934 327.57346523 221.81486541 315.69250936 221.86626285 303.81158859 C221.88621639 299.034394 221.89576647 294.25732324 221.89721501 289.48008859 C221.89995788 286.51580249 221.91077048 283.55158531 221.92372513 280.58732796 C221.92801785 279.20943208 221.92885607 277.83152062 221.92605019 276.45362091 C221.9226682 274.57826178 221.93254347 272.70289247 221.94317627 270.82756042 C221.94481057 269.77659022 221.94644487 268.72562002 221.9481287 267.64280224 C222.20146179 265.1673584 222.20146179 265.1673584 224.20146179 263.1673584 C226.51146179 263.1673584 228.82146179 263.1673584 231.20146179 263.1673584 C231.53146179 307.3873584 231.86146179 351.6073584 232.20146179 397.1673584 C243.79102773 397.1673584 249.63772149 396.19866067 257.59599304 388.43688965 C262.86094125 380.99422564 263.77820323 374.14847802 263.68247986 365.18943787 C263.68589756 364.00976852 263.68931526 362.83009916 263.69283652 361.61468226 C263.69826118 358.36252363 263.68585614 355.111012 263.66572428 351.85892975 C263.64837715 348.34371869 263.65430109 344.82853531 263.65733337 341.31329346 C263.65942617 335.2303098 263.64692459 329.14749837 263.62438202 323.06455803 C263.59181104 314.26978351 263.58144981 305.47509188 263.57643005 296.68026359 C263.56768538 282.40972005 263.54109231 268.1392682 263.5032196 253.86877441 C263.46647806 240.01005511 263.4381768 226.15136075 263.42118835 212.29260254 C263.41961201 211.01024771 263.41961201 211.01024771 263.41800383 209.70198672 C263.41278351 205.41299414 263.40772871 201.12400138 263.40275621 196.8350085 C263.36131994 161.27904368 263.28759605 125.72324855 263.20146179 90.1673584 C244.39146179 90.1673584 225.58146179 90.1673584 206.20146179 90.1673584 C211.38366747 96.21950606 211.38366747 96.21950606 217.01396179 101.6048584 C217.7835321 102.28419434 218.55310242 102.96353027 219.34599304 103.66345215 C222.03209148 106.09564885 222.03209148 106.09564885 224.41314602 107.77495575 C230.69932807 112.64351356 230.69932807 112.64351356 232.0204792 116.65286255 C232.30595258 119.52909306 232.31668656 122.28426224 232.22319031 125.17321777 C232.22450455 126.24727875 232.22581879 127.32133972 232.22717285 128.427948 C232.22093161 131.95736749 232.15107478 135.48244187 232.08036804 139.0111084 C232.06357145 141.46587793 232.05076525 143.92067774 232.04177856 146.37548828 C232.00749824 152.82067915 231.91916119 159.2640298 231.81944275 165.70849609 C231.72719473 172.29088448 231.68623194 178.87357172 231.64091492 185.4564209 C231.54453913 198.36084954 231.39277734 211.26400587 231.20146179 224.1673584 C227.82646179 224.2923584 227.82646179 224.2923584 224.20146179 224.1673584 C221.83499406 221.80089066 221.94713395 221.3417549 221.92298889 218.13046265 C221.90624367 216.86421555 221.90624367 216.86421555 221.88916016 215.5723877 C221.88699997 214.64450439 221.88483978 213.71662109 221.88261414 212.76062012 C221.87256851 211.78497101 221.86252289 210.8093219 221.85217285 209.80410767 C221.82119914 206.56842659 221.80426636 203.33282878 221.78739929 200.0970459 C221.76869905 197.85787228 221.74912652 195.61870578 221.72871399 193.37954712 C221.67726591 187.47768344 221.63770814 181.57579689 221.60057068 175.67382812 C221.56061033 169.6546863 221.50948174 163.63564068 221.45927429 157.61657715 C221.36236498 145.80023836 221.27800838 133.9838454 221.20146179 122.1673584 C220.15354462 122.15927155 219.10562744 122.15118469 218.0259552 122.14285278 C208.16665161 122.06548204 198.30748757 121.97776605 188.44836617 121.87983131 C183.37927632 121.8298129 178.31020789 121.78348352 173.24101257 121.7454834 C168.35206757 121.70870044 163.46329931 121.66235991 158.57450485 121.60929489 C156.70616114 121.59071365 154.83777949 121.57561959 152.96937943 121.56401443 C150.35921749 121.54721551 147.74946368 121.51819662 145.13945007 121.48620605 C144.36117859 121.48404587 143.5829071 121.48188568 142.78105164 121.47966003 C137.42956611 121.39546272 137.42956611 121.39546272 135.20146179 119.1673584 C134.98430578 116.70025197 134.89009919 114.34186057 134.88261414 111.87194824 C134.8675457 110.74497276 134.8675457 110.74497276 134.85217285 109.5952301 C134.82122628 107.10625998 134.80427415 104.61739797 134.78739929 102.1282959 C134.76869684 100.40478579 134.74912413 98.68128492 134.72871399 96.95779419 C134.67728914 92.41716958 134.63771901 87.87651526 134.60057068 83.33575439 C134.56059575 78.70402614 134.50947379 74.07242262 134.45927429 69.4407959 C134.36239252 60.34973755 134.27802712 51.25860895 134.20146179 42.1673584 C110.49670107 42.07386238 86.79196803 42.0033533 63.08705997 41.96010971 C52.08012791 41.93949609 41.0733105 41.91139834 30.06645203 41.86560059 C20.47139691 41.82569619 10.87642484 41.79991686 1.28128904 41.79100442 C-3.79794985 41.7857958 -8.87695116 41.77357849 -13.95611382 41.74443817 C-18.74053235 41.71721224 -23.52461628 41.70892792 -28.30910492 41.71492767 C-30.06141798 41.71383065 -31.81374266 41.70591962 -33.56598854 41.6905365 C-46.81712528 41.57994679 -56.4321483 43.0380951 -65.79853821 53.1673584 Z " fill="#040403" transform="translate(159.7985382080078,35.8326416015625)"/>
<path d="M0 0 C2.94088195 4.41132292 3.74018796 9.20152987 5 14.3125 C5.26039063 15.32634766 5.52078125 16.34019531 5.7890625 17.38476562 C9.46116213 32.11952903 10.41120706 46.38874779 10.375 61.5 C10.3737915 62.43163971 10.37258301 63.36327942 10.37133789 64.32315063 C10.2426748 100.85523113 -0.08431372 137.40874523 -25.5625 164.65625 C-33.37782712 172.17098761 -42.11778584 177.62543495 -52 182 C-52.79535156 182.36222656 -53.59070313 182.72445312 -54.41015625 183.09765625 C-65.20767448 186.85968749 -80.62603347 186.53641068 -91.3828125 182.8515625 C-93 182 -93 182 -94 180 C-93.63390625 179.58492187 -93.2678125 179.16984375 -92.890625 178.7421875 C-90.92073956 176.50027026 -88.95961202 174.2509057 -87 172 C-86.56042969 171.49597656 -86.12085938 170.99195313 -85.66796875 170.47265625 C-65.75602208 147.59860181 -48.16781555 123.05819849 -32.25 97.25 C-31.4609729 95.99920654 -31.4609729 95.99920654 -30.65600586 94.72314453 C-27.99644074 90.33895131 -26.28108077 87.30630859 -27 82 C-30.32432563 81.61351453 -30.32432563 81.61351453 -34 82 C-36.36663413 83.87978364 -36.36663413 83.87978364 -38.1875 86.625 C-38.95707031 87.63820313 -39.72664063 88.65140625 -40.51953125 89.6953125 C-40.92381348 90.23833008 -41.3280957 90.78134766 -41.74462891 91.34082031 C-54.00918017 107.55044505 -68.86522173 122.66723134 -85 135 C-86.08416858 135.8710443 -87.16606232 136.74492494 -88.24609375 137.62109375 C-94.36271975 142.55677422 -100.60436051 147.23402116 -107.125 151.625 C-107.75245117 152.05095459 -108.37990234 152.47690918 -109.02636719 152.91577148 C-111.94113509 154.84242196 -114.50011414 156.49504134 -118 157 C-118.81627446 154.60539412 -119.62811645 152.20943474 -120.4375 149.8125 C-120.66759766 149.13896484 -120.89769531 148.46542969 -121.13476562 147.77148438 C-125.39702408 135.10825272 -126.08824465 121.17550828 -120.53515625 108.81640625 C-118.12593481 104.39643511 -115.39985491 100.70538681 -112 97 C-110.88044922 95.74316406 -110.88044922 95.74316406 -109.73828125 94.4609375 C-98.86641943 82.90646261 -85.50995587 74.34373708 -71.97363281 66.23657227 C-42.85211962 48.752944 -16.95381581 29.97631202 0 0 Z " fill="#A2D536" transform="translate(304,261)"/>
<path d="M0 0 C18.81 0 37.62 0 57 0 C57.11026614 36.39189892 57.2025719 72.78364006 57.25532665 109.17565828 C57.26158004 113.47387665 57.26805167 117.77209466 57.2746582 122.0703125 C57.27596976 122.92599584 57.27728131 123.78167917 57.2786326 124.6632923 C57.30037813 138.51112479 57.33979494 152.3588533 57.38576398 166.20662414 C57.4325524 180.41996191 57.46030044 194.63324529 57.47044247 208.84665692 C57.4772967 217.61430837 57.49893039 226.3816659 57.53958233 235.14922686 C57.56605018 241.16475586 57.57399188 247.18013333 57.56750689 253.19571631 C57.56431022 256.66441307 57.56914548 260.13259689 57.59602737 263.60120201 C57.62095024 267.36848362 57.61490587 271.13451362 57.60127258 274.90182495 C57.61583679 275.9893987 57.630401 277.07697244 57.64540654 278.19750297 C57.56255265 286.68364108 55.26175046 293.14262555 49.75390625 299.65625 C41.29008563 306.77732546 37.83934427 307 26 307 C25.67 262.78 25.34 218.56 25 173 C23.35 172.67 21.7 172.34 20 172 C20 159.79 20 147.58 20 135 C21.65 134.67 23.3 134.34 25 134 C25.37551701 119.91791178 25.65567548 105.83661057 25.82899475 91.75052547 C25.91221911 85.20812853 26.02492197 78.66911286 26.20703125 72.12866211 C26.38194432 65.80650149 26.47675811 59.48757419 26.51803589 53.1631794 C26.54741594 50.76076937 26.6047959 48.35852051 26.69168091 45.95750237 C27.48616409 31.74332063 27.48616409 31.74332063 21.61279297 19.3298645 C18.37172666 16.04906123 14.87413469 13.24916723 11.131073 10.56474495 C1.88957902 3.77915805 1.88957902 3.77915805 0 0 Z " fill="#FBD29E" transform="translate(366,126)"/>
<path d="M0 0 C0.74747865 -0.00085442 1.49495731 -0.00170885 2.26508683 -0.00258917 C4.76473635 -0.00423366 7.26431847 0.00126052 9.76396179 0.00672913 C11.55777993 0.00701125 13.35159819 0.00685278 15.14541626 0.00628662 C20.01274366 0.00599962 24.88004643 0.01188076 29.7473681 0.01886058 C34.83494457 0.02511018 39.9225216 0.02569919 45.01010132 0.02688599 C54.64308336 0.02999455 64.27605405 0.03820157 73.90903109 0.04823548 C84.87628872 0.05941132 95.84354688 0.06491078 106.81080878 0.06993091 C129.37031479 0.08038456 151.92980524 0.09872417 174.48930359 0.12025452 C174.48930359 16.95025452 174.48930359 33.78025452 174.48930359 51.12025452 C170.62007834 48.54077102 167.69285423 46.57434184 164.46586609 43.47572327 C163.75430359 42.79832092 163.04274109 42.12091858 162.30961609 41.42298889 C161.2229364 40.37594788 161.2229364 40.37594788 160.11430359 39.30775452 C148.67083537 26.88696535 148.67083537 26.88696535 133.71264648 21.84178162 C133.01996286 21.83598921 132.32727924 21.83019681 131.6136052 21.82422888 C129.28737512 21.80719341 126.96134301 21.80434938 124.63505554 21.80140686 C122.96960461 21.79211112 121.30415835 21.78194298 119.63871765 21.77096558 C115.11219009 21.74361155 110.58569374 21.7285002 106.05910516 21.71553755 C101.33049444 21.6999306 96.60194769 21.67313265 91.87338257 21.64750671 C82.91680836 21.6006757 73.96022217 21.56395254 65.0035879 21.53083384 C54.80778409 21.49264296 44.61204445 21.44322488 34.41629469 21.39284968 C13.44067835 21.28946555 -7.5349786 21.20022626 -28.51069641 21.12025452 C-27.44523 14.04285775 -24.87398318 9.85698875 -19.28804016 5.31166077 C-12.84509826 0.82634061 -7.806081 -0.03278295 0 0 Z " fill="#FAD29E" transform="translate(160.5106964111328,46.87974548339844)"/>
<path d="M0 0 C1.33723114 -0.01051392 1.33723114 -0.01051392 2.70147705 -0.02124023 C5.64765593 -0.03884221 8.59287389 -0.02718963 11.5390625 -0.01367188 C13.58642766 -0.01636615 15.63379157 -0.02024804 17.68115234 -0.02526855 C21.97180363 -0.03116659 26.26212181 -0.02259067 30.55273438 -0.00390625 C36.05437738 0.01888331 41.55523988 0.00576189 47.05685425 -0.01819611 C51.28448372 -0.03264572 55.51192795 -0.0280519 59.73956299 -0.01768494 C61.76816907 -0.01501534 63.79679193 -0.01829556 65.82537842 -0.02760315 C68.66008088 -0.03775484 71.49351695 -0.02228697 74.328125 0 C75.16772766 -0.00809692 76.00733032 -0.01619385 76.87237549 -0.02453613 C80.52534711 0.02871002 82.70708801 0.17841685 85.68395996 2.38781738 C87.56107417 5.08884927 87.67990894 6.74322046 87.6953125 10.01757812 C87.70304687 11.59539062 87.70304687 11.59539062 87.7109375 13.20507812 C87.69546875 14.29820312 87.68 15.39132813 87.6640625 16.51757812 C87.68726563 18.15726563 87.68726563 18.15726563 87.7109375 19.83007812 C87.70578125 20.88195312 87.700625 21.93382812 87.6953125 23.01757812 C87.69080078 23.97664063 87.68628906 24.93570313 87.68164062 25.92382812 C86.9834007 29.42293236 86.03421097 30.38738655 83.1640625 32.51757812 C80.09861671 32.91208882 77.39311974 33.06471431 74.328125 33.03515625 C73.43663757 33.04216553 72.54515015 33.0491748 71.62664795 33.05639648 C68.68046907 33.07399846 65.73525111 33.06234588 62.7890625 33.04882812 C60.74169734 33.0515224 58.69433343 33.05540429 56.64697266 33.0604248 C52.35632137 33.06632284 48.06600319 33.05774692 43.77539062 33.0390625 C38.27374762 33.01627294 32.77288512 33.02939436 27.27127075 33.05335236 C23.04364128 33.06780197 18.81619705 33.06320815 14.58856201 33.05284119 C12.55995593 33.05017159 10.53133307 33.05345181 8.50274658 33.0627594 C5.66804412 33.07291109 2.83460805 33.05744322 0 33.03515625 C-0.83960266 33.04325317 -1.67920532 33.0513501 -2.54425049 33.05969238 C-6.19722211 33.00644623 -8.37896301 32.8567394 -11.35583496 30.64733887 C-13.23294917 27.94630698 -13.35178394 26.29193579 -13.3671875 23.01757812 C-13.37234375 21.96570313 -13.3775 20.91382813 -13.3828125 19.83007812 C-13.36734375 18.73695313 -13.351875 17.64382812 -13.3359375 16.51757812 C-13.35140625 15.42445313 -13.366875 14.33132812 -13.3828125 13.20507812 C-13.37507812 11.62726563 -13.37507812 11.62726563 -13.3671875 10.01757812 C-13.36267578 9.05851563 -13.35816406 8.09945312 -13.35351562 7.11132812 C-11.91083891 -0.11838766 -6.27941965 -0.0605572 0 0 Z " fill="#090B0B" transform="translate(197.8359375,124.482421875)"/>
<path d="M0 0 C0.89772125 -0.0066568 1.7954425 -0.0133136 2.72036743 -0.02017212 C4.62182564 -0.03030833 6.52331949 -0.03498884 8.42480469 -0.03466797 C11.33328028 -0.03903505 14.24023123 -0.07532669 17.1484375 -0.11328125 C18.99478647 -0.11915043 20.84114266 -0.12311915 22.6875 -0.125 C23.5574057 -0.13937103 24.4273114 -0.15374207 25.32357788 -0.16854858 C28.98397542 -0.14088176 31.32175087 -0.04449839 34.52392578 1.81591797 C36.67728621 5.55154592 36.54972991 8.87268459 36.5078125 13.1171875 C36.5116394 13.96768677 36.51546631 14.81818604 36.51940918 15.69445801 C36.52212708 17.48983954 36.51477432 19.28526074 36.49804688 21.08056641 C36.47663417 23.82674543 36.49785121 26.57030847 36.5234375 29.31640625 C36.5207942 31.06250577 36.51566917 32.80860366 36.5078125 34.5546875 C36.51590942 35.37457153 36.52400635 36.19445557 36.53234863 37.03918457 C36.47451844 40.5598053 36.30286164 42.76987704 34.52392578 45.85595703 C30.6482399 48.10767333 27.09365585 47.86966566 22.6875 47.796875 C21.7878653 47.79595856 20.88823059 47.79504211 19.96133423 47.7940979 C18.06336172 47.78806462 16.16539861 47.77232676 14.26757812 47.74755859 C11.35511413 47.7109821 8.44391998 47.70653974 5.53125 47.70703125 C3.68748896 47.69720261 1.84373655 47.68554671 0 47.671875 C-0.87395416 47.66964935 -1.74790833 47.66742371 -2.64834595 47.66513062 C-8.79127713 47.56809787 -8.79127713 47.56809787 -11.0234375 45.3359375 C-11.27740479 43.47644043 -11.27740479 43.47644043 -11.28222656 41.19335938 C-11.28853088 40.33907349 -11.29483521 39.4847876 -11.30133057 38.60461426 C-11.2972821 37.68063843 -11.29323364 36.7566626 -11.2890625 35.8046875 C-11.29097595 34.85783081 -11.2928894 33.91097412 -11.29486084 32.9354248 C-11.29622323 30.93139378 -11.29252306 28.92735396 -11.28417969 26.92333984 C-11.27348097 23.84843197 -11.28407322 20.77410836 -11.296875 17.69921875 C-11.29555341 15.75520704 -11.29299104 13.81119569 -11.2890625 11.8671875 C-11.29513519 10.48122375 -11.29513519 10.48122375 -11.30133057 9.06726074 C-11.29502625 8.21297485 -11.28872192 7.35868896 -11.28222656 6.47851562 C-11.28063538 5.72509888 -11.27904419 4.97168213 -11.27740479 4.19543457 C-10.50993849 -1.42379831 -4.32107934 0.01100424 0 0 Z " fill="#080504" transform="translate(163.0234375,255.6640625)"/>
<path d="M0 0 C7.86903925 6.74489079 15.62328357 13.55007489 23.22119141 20.59619141 C26.11276689 23.27326578 29.01845764 25.92273457 32 28.5 C35.57351887 31.58897394 39.03709273 34.78844069 42.5 38 C46.5962937 41.79829678 50.72406515 45.54350284 54.9453125 49.203125 C57.65173874 51.56996164 60.33006353 53.96720584 63 56.375 C63.94875 57.22835937 64.8975 58.08171875 65.875 58.9609375 C66.57625 59.63382813 67.2775 60.30671875 68 61 C68 61.33 68 61.66 68 62 C45.56 62 23.12 62 0 62 C0 41.54 0 21.08 0 0 Z " fill="#CACACA" transform="translate(304,85)"/>
<path d="M0 0 C1.28765943 0.95484397 2.57383356 1.91169117 3.859375 2.86938477 C4.93396973 3.66832909 4.93396973 3.66832909 6.03027344 4.4834137 C8.20320605 6.15645802 10.11481266 7.94711247 12 9.9375 C15.0975122 13.11889067 18.30305003 16.05942764 21.66796875 18.953125 C24.66270063 21.58166688 27.57975602 24.28926718 30.5 27 C33.96270951 30.21176007 37.4264917 33.4110352 41 36.5 C45.15774493 40.09398291 49.17259659 43.83785996 53.19848633 47.57788086 C56.89702659 51.00631216 60.65240493 54.34988252 64.51171875 57.59765625 C66 59 66 59 68 62 C60.16777187 62.1626172 52.33594339 62.28678204 44.50244808 62.3626852 C40.86438561 62.39912741 37.2274829 62.44850368 33.59008789 62.52807617 C30.07569152 62.60447153 26.56240609 62.64605802 23.04724312 62.6641407 C21.06228568 62.68325723 19.07777178 62.73785167 17.0934906 62.79307556 C6.97826157 62.7974566 6.97826157 62.7974566 2.66601562 59.25195312 C-1.39190263 54.20633732 -0.87514855 48.47217609 -0.68359375 42.28515625 C-0.67368912 41.07427841 -0.66378448 39.86340057 -0.65357971 38.61582947 C-0.61451938 34.76346702 -0.52670062 30.91399542 -0.4375 27.0625 C-0.4023759 24.44470272 -0.37043885 21.8268606 -0.34179688 19.20898438 C-0.26478402 12.80500991 -0.14777366 6.4027115 0 0 Z " fill="#FABD98" transform="translate(346,54)"/>
<path d="M0 0 C0.66591675 -0.00382555 1.33183351 -0.00765109 2.01792955 -0.01159257 C4.25971292 -0.02194988 6.50124147 -0.01792537 8.74304199 -0.01396179 C10.34598529 -0.01830673 11.94892651 -0.02348915 13.55186462 -0.02944946 C17.91333492 -0.04287331 22.27471874 -0.04341445 26.63620567 -0.04088616 C30.27215989 -0.03981887 33.90809643 -0.04469353 37.54404688 -0.04949158 C46.11836721 -0.0605982 54.69264373 -0.06101751 63.26696777 -0.05497742 C72.12500422 -0.04893363 80.98288199 -0.06125624 89.84089136 -0.08254749 C97.43581486 -0.10013435 105.03068773 -0.10616952 112.62563086 -0.10290974 C117.16632238 -0.10109228 121.70690068 -0.10377902 126.24757385 -0.11762428 C130.51572503 -0.13015098 134.78362785 -0.12830785 139.05177498 -0.11521339 C140.62156824 -0.11283685 142.19137871 -0.11562058 143.76115227 -0.12383652 C145.89762033 -0.1342154 148.03324122 -0.12627633 150.16967773 -0.11352539 C151.96604298 -0.113777 151.96604298 -0.113777 153.79869843 -0.1140337 C154.71812477 0.00962724 155.63755112 0.13328817 156.58483887 0.26069641 C158.58483887 3.26069641 158.58483887 3.26069641 158.33483887 5.82319641 C157.58483887 8.26069641 157.58483887 8.26069641 155.58483887 10.26069641 C152.8143158 10.51237869 152.8143158 10.51237869 149.2076416 10.5146637 C148.2148918 10.51934367 148.2148918 10.51934367 147.20208645 10.52411819 C144.97411248 10.53212504 142.74640884 10.52576426 140.51843262 10.51948547 C138.9253422 10.52219415 137.33225304 10.52575438 135.73916626 10.53010559 C131.40454684 10.53924658 127.0700223 10.53567833 122.73540115 10.52934742 C118.20661405 10.52429625 113.67783526 10.52897641 109.14904785 10.53211975 C101.54266903 10.53576198 93.93632899 10.53095358 86.32995605 10.5214386 C77.52648148 10.51055355 68.72309952 10.51407895 59.91962719 10.52509141 C52.37141468 10.53415699 44.82323011 10.53545314 37.27501392 10.53021407 C32.76229648 10.52709034 28.24962263 10.52669602 23.73690796 10.53328705 C19.49506147 10.5390493 15.25333481 10.53508428 11.01150131 10.52349854 C9.45138625 10.52084593 7.89126117 10.52162723 6.33115005 10.52602386 C4.20797427 10.53145725 2.08518691 10.52467255 -0.03796387 10.5146637 C-1.22816635 10.51390965 -2.41836884 10.51315559 -3.64463806 10.51237869 C-6.41516113 10.26069641 -6.41516113 10.26069641 -8.41516113 8.26069641 C-8.66516113 5.26069641 -8.66516113 5.26069641 -8.41516113 2.26069641 C-5.62104157 -0.53342315 -3.91638457 0.00671341 0 0 Z " fill="#000000" transform="translate(160.4151611328125,224.7393035888672)"/>
<path d="M0 0 C0.99 0.495 0.99 0.495 2 1 C1.31035156 1.81082031 0.62070313 2.62164062 -0.08984375 3.45703125 C-1.03928034 4.57533593 -1.98848119 5.69384076 -2.9375 6.8125 C-3.69075562 7.70001953 -3.69075562 7.70001953 -4.45922852 8.60546875 C-7.50114373 12.19927636 -10.48809174 15.82950479 -13.4375 19.5 C-21.74599246 29.65968289 -30.89314096 38.99684711 -40.125 48.3125 C-40.94782471 49.14837646 -41.77064941 49.98425293 -42.6184082 50.84545898 C-58.34490469 66.5938783 -58.34490469 66.5938783 -64.8125 67.3125 C-68.8276831 66.9188546 -70.24207971 65.91113808 -73 63 C-75.25137082 58.28284209 -75.64982973 54.11740914 -75 49 C-70.19965452 44.0643214 -64.39066648 41.62308685 -58.1875 38.8125 C-36.88316379 28.84978718 -16.95125678 16.47191533 0 0 Z " fill="#91B93F" transform="translate(231,398)"/>
<path d="M0 0 C25.74 0 51.48 0 78 0 C78 3.3 78 6.6 78 10 C52.26 10 26.52 10 0 10 C0 6.7 0 3.4 0 0 Z " fill="#43B7D9" transform="translate(196,136)"/>
<path d="M0 0 C8.58 0 17.16 0 26 0 C26 8.25 26 16.5 26 25 C17.42 25 8.84 25 0 25 C0 16.75 0 8.5 0 0 Z " fill="#FF4C3B" transform="translate(162,267)"/>
</svg>
